<svg id="Layer_1" xmlns="http://www.w3.org/2000/svg" viewBox="0 0 24 24"><style>.st0{fill:#fff}</style><path class="st0" d="M24 8.2c0-.1 0-.1 0 0v-.6h-.1L12.9.3c-.3-.2-.8-.2-1.1 0L.8 7.6H.7l-.1.1v8.6l.1.1h.1l11 7.3c.2.1.4.2.6.2s.4-.1.6-.2l11-7.3h.1l.1-.1v-8c-.2 0-.2 0-.2-.1zm-12 6.2L8.4 12 12 9.6l3.6 2.4-3.6 2.4zm-1-6.6l-4.5 3-3.6-2.5L11 3v4.8zM4.6 12L2 13.7v-3.4L4.6 12zm1.9 1.2l4.5 3V21l-8.1-5.4 3.6-2.4zm6.5 3l4.5-3 3.6 2.4L13 21v-4.8zm6.4-4.2l2.6-1.7v3.4L19.4 12zm-1.9-1.2l-4.5-3V3l8.1 5.4-3.6 2.4z"/></svg>