<svg id="Layer_1" xmlns="http://www.w3.org/2000/svg" viewBox="0 0 512 512"><style>.st0{enable-background:new}.st1{fill:#ff0}.st2{fill:#fff}</style><text transform="translate(168.783 543.81)" class="st1" font-family="Verdana-Bold" font-size="20">simpleicon.com</text><text transform="translate(9.193 567.81)" class="st1" font-family="Verdana" font-size="20">Collection Of Flat Icon, Symbols And Glyph Icons</text><path class="st2" d="M223.2 71.2c16.1-15.3 38.9-20.5 60.5-21.1 22.8-.2 45.6-.1 68.4-.1.1 24.1.1 48.1 0 72.2h-44.2c-9.3-.6-18.9 6.5-20.6 15.8-.2 16.1-.1 32.2-.1 48.3 21.6.1 43.2 0 64.8.1-1.6 23.3-4.5 46.5-7.9 69.5-19.1.2-38.2 0-57.3.1-.2 68.7.1 137.3-.1 206-28.4.1-56.7-.1-85.1.1-.5-68.7 0-137.4-.3-206.1-13.8-.1-27.7.1-41.5-.1.1-23.1 0-46.2 0-69.2 13.8-.2 27.7 0 41.5-.1.4-22.4-.4-44.9.4-67.3 1.5-17.9 8.2-35.8 21.5-48.1z" id="_x23_020201ff"/></svg>