<svg id="Layer_1" xmlns="http://www.w3.org/2000/svg" viewBox="0 0 100 70"><style>.st0{fill:#fff}</style><path class="st0" d="M78.6 35.2c-.4 16.3-13.3 29.9-29.9 29.9-16.3 0-29.9-13.6-29.9-29.9 0-16.3 13.6-29.9 29.9-29.9 16.5 0 29.5 13.6 29.9 29.9 0 1.9 3 1.9 3 0-.3-13.5-8.4-25.8-21.2-30.7-13.1-5-28.3-.9-37.1 9.9C14.6 25 13.4 40.3 20.4 52c7 11.7 20.8 18 34.2 15.6 15.7-2.8 26.6-16.7 27-32.3 0-2-3-2-3-.1z"/><path class="st0" d="M26.9 47.2H30c.8 0 1.4 0 1.9-.1s.9-.3 1.2-.6c.3-.3.5-.8.7-1.4.1-.6.2-1.4.2-2.5V17.9h5v24.6c0 1.7-.2 3.1-.5 4.2s-.8 2-1.5 2.7c-.7.7-1.6 1.1-2.7 1.4-1.1.3-2.5.4-4.1.4h-2.7c-.6 0-1 0-1.3-.1l.7-3.9zm13-32.9c0 1.1-.2 1.9-.7 2.4-.5.5-1.3.7-2.4.7s-1.9-.2-2.4-.7c-.5-.5-.7-1.3-.7-2.4 0-1.1.2-1.9.7-2.4.5-.5 1.3-.7 2.4-.7s1.9.2 2.4.7c.4.5.7 1.3.7 2.4zm10.9 4.9c2 0 3.8.2 5.2.6 1.4.4 2.6 1 3.5 1.9.9.9 1.6 2.2 2 3.7.4 1.6.6 3.5.6 5.9v2.2c0 2.1-.2 3.9-.5 5.4-.3 1.5-.9 2.8-1.8 3.7-.8 1-2 1.7-3.5 2.2-1.5.5-3.4.7-5.7.7-1.5 0-2.8-.2-3.8-.6-1-.4-1.9-.8-2.5-1.4v9.6h-5.1v-22c0-2.3.2-4.2.6-5.7.4-1.5 1.1-2.7 2-3.6.9-.9 2.1-1.6 3.6-1.9 1.6-.5 3.4-.7 5.4-.7zm0 22.3c1.3 0 2.4-.1 3.2-.3.8-.2 1.5-.6 1.9-1.2.5-.6.8-1.4.9-2.4.1-1 .2-2.4.2-4.1v-2.2c0-1.8-.1-3.2-.2-4.2-.2-1-.5-1.8-.9-2.4-.5-.6-1.1-.9-1.9-1.1-.8-.2-1.9-.3-3.2-.3-1.3 0-2.3.1-3.2.3-.8.2-1.5.5-2 1.1-.5.5-.8 1.3-1 2.3-.2 1-.3 2.4-.3 4.1v3.4c0 1.4.1 2.6.3 3.5.2.9.5 1.6 1 2.1s1.1.9 2 1.1c.9.2 1.9.3 3.2.3z"/><path class="st0" d="M61 58.2v-17c0-1.4.2-2.7.7-3.7.4-1 1.1-1.8 1.9-2.4s1.8-1.1 3-1.4c1.2-.3 2.4-.4 3.8-.4h5.7l-.9 4.2h-4.3c-1.1 0-2 .1-2.6.3-.6.2-1.1.5-1.4.9-.3.4-.5.9-.6 1.5-.1.6-.1 1.3-.1 2.1v15.9H61z"/></svg>